<svg xmlns="http://www.w3.org/2000/svg" viewBox="0 0 900 430">
      <rect width="900" height="430" rx="34" fill="#f8fbff"/>
      <circle cx="80" cy="215" r="9" fill="#2563eb"/><circle cx="96" cy="231.82941969615794" r="9" fill="#2563eb"/><circle cx="112" cy="233.18594853651365" r="9" fill="#2563eb"/><circle cx="128" cy="217.82240016119735" r="9" fill="#2563eb"/><circle cx="144" cy="199.86395009384142" r="9" fill="#2563eb"/><circle cx="160" cy="195.82151450673723" r="4" fill="#93c5fd"/><circle cx="176" cy="209.41169003602147" r="4" fill="#93c5fd"/><circle cx="192" cy="228.1397319743758" r="4" fill="#93c5fd"/><circle cx="208" cy="234.78716493246765" r="4" fill="#93c5fd"/><circle cx="224" cy="223.24236970483514" r="4" fill="#93c5fd"/><circle cx="240" cy="204.11957778221262" r="4" fill="#93c5fd"/><circle cx="256" cy="195.00019586898594" r="4" fill="#93c5fd"/><circle cx="272" cy="204.2685416399913" r="9" fill="#2563eb"/><circle cx="288" cy="223.4033407365328" r="9" fill="#2563eb"/><circle cx="304" cy="234.8121471138974" r="9" fill="#2563eb"/><circle cx="320" cy="228.00575680314233" r="9" fill="#2563eb"/><circle cx="336" cy="209.24193366669869" r="9" fill="#2563eb"/><circle cx="352" cy="195.77205016240887" r="4" fill="#93c5fd"/><circle cx="368" cy="199.98025506456648" r="4" fill="#93c5fd"/><circle cx="384" cy="217.99754419325905" r="4" fill="#93c5fd"/><circle cx="400" cy="233.25890501455257" r="4" fill="#93c5fd"/><circle cx="416" cy="231.7331127707211" r="4" fill="#93c5fd"/><circle cx="432" cy="214.82297381419193" r="4" fill="#93c5fd"/><circle cx="448" cy="198.0755919164966" r="4" fill="#93c5fd"/><circle cx="464" cy="196.88843275986753" r="9" fill="#2563eb"/><circle cx="480" cy="212.35296499804454" r="9" fill="#2563eb"/><circle cx="496" cy="230.25116900959205" r="9" fill="#2563eb"/><circle cx="512" cy="234.12751856809007" r="9" fill="#2563eb"/><circle cx="528" cy="220.41811576615737" r="9" fill="#2563eb"/><circle cx="544" cy="201.72732231574065" r="4" fill="#93c5fd"/><circle cx="560" cy="195.23936751814276" r="4" fill="#93c5fd"/><circle cx="576" cy="206.9192470935387" r="4" fill="#93c5fd"/><circle cx="592" cy="226.0285336248338" r="4" fill="#93c5fd"/><circle cx="608" cy="234.99823720214533" r="4" fill="#93c5fd"/><circle cx="624" cy="225.5816537224005" r="4" fill="#93c5fd"/><circle cx="640" cy="206.43634661007698" r="4" fill="#93c5fd"/><circle cx="656" cy="195.1644229311377" r="9" fill="#2563eb"/><circle cx="672" cy="202.12923733286001" r="9" fill="#2563eb"/><circle cx="688" cy="220.9273715741877" r="9" fill="#2563eb"/><circle cx="704" cy="234.27590772568175" r="9" fill="#2563eb"/><circle cx="720" cy="229.90226320958698" r="9" fill="#2563eb"/><circle cx="736" cy="211.82754662390582" r="4" fill="#93c5fd"/><circle cx="752" cy="196.66956904168734" r="4" fill="#93c5fd"/><circle cx="768" cy="198.36450514742802" r="4" fill="#93c5fd"/><circle cx="784" cy="215.35403850210827" r="4" fill="#93c5fd"/><circle cx="800" cy="232.01807049068236" r="4" fill="#93c5fd"/>
      <text x="115" y="115" font-family="Arial" font-size="28" fill="#1d4ed8" font-weight="800">compressão</text><text x="405" y="315" font-family="Arial" font-size="28" fill="#0369a1" font-weight="800">rarefação</text>
      <path d="M90 365 L810 365" stroke="#16a34a" stroke-width="7" stroke-linecap="round"/><path d="M810 365l-34-18v36z" fill="#16a34a"/><text x="360" y="398" font-family="Arial" font-size="24" fill="#166534" font-weight="800">sentido de propagação</text>
    </svg>