<svg xmlns="http://www.w3.org/2000/svg" viewBox="0 0 900 430">
      <rect width="900" height="430" rx="34" fill="#f8fbff"/>
      <rect x="205" y="85" width="420" height="260" rx="22" fill="#eef2ff" stroke="#3730a3" stroke-width="8"/>
      <rect x="585" y="85" width="40" height="260" fill="#c7d2fe" stroke="#3730a3" stroke-width="6"/>
      <circle cx="245" cy="125" r="9" fill="#7c3aed"/><circle cx="312" cy="168" r="9" fill="#2563eb"/><circle cx="379" cy="211" r="9" fill="#7c3aed"/><circle cx="446" cy="254" r="9" fill="#2563eb"/><circle cx="513" cy="297" r="9" fill="#7c3aed"/><circle cx="280" cy="165" r="9" fill="#2563eb"/><circle cx="347" cy="208" r="9" fill="#7c3aed"/><circle cx="414" cy="251" r="9" fill="#2563eb"/><circle cx="481" cy="294" r="9" fill="#7c3aed"/><circle cx="248" cy="162" r="9" fill="#2563eb"/><circle cx="315" cy="205" r="9" fill="#7c3aed"/><circle cx="382" cy="248" r="9" fill="#2563eb"/><circle cx="449" cy="291" r="9" fill="#7c3aed"/><circle cx="516" cy="159" r="9" fill="#2563eb"/><circle cx="283" cy="202" r="9" fill="#7c3aed"/><circle cx="350" cy="245" r="9" fill="#2563eb"/><circle cx="417" cy="288" r="9" fill="#7c3aed"/><circle cx="484" cy="156" r="9" fill="#2563eb"/><circle cx="251" cy="199" r="9" fill="#7c3aed"/><circle cx="318" cy="242" r="9" fill="#2563eb"/><circle cx="385" cy="285" r="9" fill="#7c3aed"/><circle cx="452" cy="153" r="9" fill="#2563eb"/><circle cx="519" cy="196" r="9" fill="#7c3aed"/><circle cx="286" cy="239" r="9" fill="#2563eb"/><circle cx="353" cy="282" r="9" fill="#7c3aed"/><circle cx="420" cy="150" r="9" fill="#2563eb"/><circle cx="487" cy="193" r="9" fill="#7c3aed"/><circle cx="254" cy="236" r="9" fill="#2563eb"/><circle cx="321" cy="279" r="9" fill="#7c3aed"/><circle cx="388" cy="147" r="9" fill="#2563eb"/><circle cx="455" cy="190" r="9" fill="#7c3aed"/><circle cx="522" cy="233" r="9" fill="#2563eb"/><circle cx="289" cy="276" r="9" fill="#7c3aed"/><circle cx="356" cy="144" r="9" fill="#2563eb"/>
      <path d="M645 215h130" stroke="#ef4444" stroke-width="8" stroke-linecap="round"/><path d="M775 215l-34-18v36z" fill="#ef4444"/>
      <text x="250" y="395" font-family="Arial" font-size="30" fill="#172033" font-weight="800">p · V = n · R · T</text><text x="657" y="190" font-family="Arial" font-size="24" fill="#991b1b" font-weight="800">pressão</text>
    </svg>