<svg xmlns="http://www.w3.org/2000/svg" viewBox="0 0 900 430">
      <rect width="900" height="430" rx="34" fill="#f8fbff"/>
      <rect x="105" y="240" width="210" height="46" rx="12" fill="#94a3b8"/><circle cx="100" cy="263" r="38" fill="#ef4444"/><circle cx="320" cy="263" r="38" fill="#38bdf8"/><text x="105" y="330" font-family="Arial" font-size="22" font-weight="800" fill="#172033">condução</text>
      <path d="M455 300 C410 220, 420 130, 500 120 C580 130, 590 220, 545 300" fill="none" stroke="#2563eb" stroke-width="8"/><path d="M545 300l-26-24 35-8z" fill="#2563eb"/><text x="420" y="330" font-family="Arial" font-size="22" font-weight="800" fill="#172033">convecção</text>
      <circle cx="725" cy="205" r="52" fill="#f59e0b"/><g stroke="#f59e0b" stroke-width="7" stroke-linecap="round"><line x1="797.0" y1="205.0" x2="830.0" y2="205.0"/><line x1="787.4" y1="241.0" x2="815.9" y2="257.5"/><line x1="761.0" y1="267.4" x2="777.5" y2="295.9"/><line x1="725.0" y1="277.0" x2="725.0" y2="310.0"/><line x1="689.0" y1="267.4" x2="672.5" y2="295.9"/><line x1="662.6" y1="241.0" x2="634.1" y2="257.5"/><line x1="653.0" y1="205.0" x2="620.0" y2="205.0"/><line x1="662.6" y1="169.0" x2="634.1" y2="152.5"/><line x1="689.0" y1="142.6" x2="672.5" y2="114.1"/><line x1="725.0" y1="133.0" x2="725.0" y2="100.0"/><line x1="761.0" y1="142.6" x2="777.5" y2="114.1"/><line x1="787.4" y1="169.0" x2="815.9" y2="152.5"/></g><text x="675" y="330" font-family="Arial" font-size="22" font-weight="800" fill="#172033">radiação</text>
    </svg>