<svg xmlns="http://www.w3.org/2000/svg" viewBox="0 0 960 560" role="img" aria-labelledby="title desc">
  <title id="title">Nadador em prova de nado borboleta</title>
  <desc id="desc">Ilustracao autoral de um nadador em uma piscina olimpica, usada como apoio visual para uma questao de velocidade media.</desc>
  <defs>
    <linearGradient id="water" x1="0" x2="1" y1="0" y2="1">
      <stop offset="0%" stop-color="#dff7ff"/>
      <stop offset="45%" stop-color="#73d2f6"/>
      <stop offset="100%" stop-color="#1777d4"/>
    </linearGradient>
    <linearGradient id="lane" x1="0" x2="1">
      <stop offset="0%" stop-color="#1d4ed8"/>
      <stop offset="100%" stop-color="#7c3aed"/>
    </linearGradient>
    <filter id="softShadow" x="-20%" y="-20%" width="140%" height="140%">
      <feDropShadow dx="0" dy="14" stdDeviation="18" flood-color="#0f172a" flood-opacity=".18"/>
    </filter>
  </defs>
  <rect width="960" height="560" rx="42" fill="#f8fafc"/>
  <rect x="42" y="54" width="876" height="452" rx="38" fill="url(#water)" filter="url(#softShadow)"/>
  <path d="M70 140 C190 105 270 178 390 142 S620 105 890 145" fill="none" stroke="#f8fafc" stroke-width="7" opacity=".75"/>
  <path d="M70 240 C190 205 270 278 390 242 S620 205 890 245" fill="none" stroke="#f8fafc" stroke-width="7" opacity=".55"/>
  <path d="M70 340 C190 305 270 378 390 342 S620 305 890 345" fill="none" stroke="#f8fafc" stroke-width="7" opacity=".55"/>
  <path d="M70 440 C190 405 270 478 390 442 S620 405 890 445" fill="none" stroke="#f8fafc" stroke-width="7" opacity=".75"/>
  <g opacity=".72">
    <rect x="92" y="102" width="776" height="8" rx="4" fill="url(#lane)"/>
    <rect x="92" y="452" width="776" height="8" rx="4" fill="url(#lane)"/>
    <g fill="#facc15">
      <circle cx="132" cy="106" r="10"/><circle cx="190" cy="106" r="10"/><circle cx="248" cy="106" r="10"/>
      <circle cx="306" cy="106" r="10"/><circle cx="364" cy="106" r="10"/><circle cx="422" cy="106" r="10"/>
      <circle cx="132" cy="456" r="10"/><circle cx="190" cy="456" r="10"/><circle cx="248" cy="456" r="10"/>
      <circle cx="306" cy="456" r="10"/><circle cx="364" cy="456" r="10"/><circle cx="422" cy="456" r="10"/>
    </g>
  </g>
  <g transform="translate(310 158)">
    <path d="M80 190 C140 150 205 146 280 176 C340 200 410 210 500 178" fill="none" stroke="#e0f2fe" stroke-width="22" stroke-linecap="round" opacity=".9"/>
    <path d="M118 185 C180 236 280 242 366 190" fill="none" stroke="#bae6fd" stroke-width="15" stroke-linecap="round" opacity=".75"/>
    <ellipse cx="270" cy="164" rx="82" ry="34" fill="#1e3a8a"/>
    <circle cx="356" cy="147" r="28" fill="#f6c6a6"/>
    <path d="M372 138 C384 136 396 145 400 157 C384 158 372 153 363 143 Z" fill="#0f172a"/>
    <path d="M212 154 C142 110 90 104 44 122" fill="none" stroke="#f6c6a6" stroke-width="22" stroke-linecap="round"/>
    <path d="M326 164 C392 126 448 112 512 120" fill="none" stroke="#f6c6a6" stroke-width="22" stroke-linecap="round"/>
    <path d="M212 194 C166 236 122 256 74 252" fill="none" stroke="#f6c6a6" stroke-width="20" stroke-linecap="round"/>
    <path d="M300 196 C354 236 404 258 462 250" fill="none" stroke="#f6c6a6" stroke-width="20" stroke-linecap="round"/>
  </g>
  <g transform="translate(70 72)">
    <rect width="176" height="58" rx="18" fill="#ffffff" opacity=".86"/>
    <text x="18" y="24" font-family="Inter, Arial, sans-serif" font-size="15" font-weight="800" fill="#1d4ed8">Piscina de 50 m</text>
    <text x="18" y="43" font-family="Inter, Arial, sans-serif" font-size="13" fill="#475569">Nado borboleta</text>
  </g>
</svg>
